<?xml version="1.0" standalone="no"?>
<!DOCTYPE svg PUBLIC "-//W3C//DTD SVG 20010904//EN"
 "http://www.w3.org/TR/2001/REC-SVG-20010904/DTD/svg10.dtd">
<svg version="1.0" xmlns="http://www.w3.org/2000/svg"
 width="460.000000pt" height="460.000000pt" viewBox="0 0 460.000000 460.000000"
 preserveAspectRatio="xMidYMid meet">

<g transform="translate(0.000000,460.000000) scale(0.100000,-0.100000)"
fill="#000000" stroke="none">
<path d="M1485 4235 c-99 -53 -135 -115 -135 -230 1 -127 76 -214 212 -244 47
-11 48 -7 6 15 -136 70 -204 224 -148 333 41 82 112 116 222 109 58 -5 75 -10
106 -35 20 -16 47 -44 59 -62 21 -31 40 -122 29 -139 -3 -6 -25 -3 -51 5 -27
10 -55 12 -72 8 -27 -7 -27 -8 17 -24 25 -9 56 -24 69 -33 22 -16 23 -19 11
-48 -17 -42 -84 -95 -145 -114 l-50 -16 47 4 c59 4 134 47 160 92 11 19 23 34
28 34 7 0 90 -113 90 -124 0 -3 13 -24 29 -48 29 -43 95 -178 89 -183 -2 -2
-43 -15 -93 -30 -49 -15 -96 -31 -105 -35 -8 -4 -40 -20 -70 -34 -30 -15 -64
-32 -75 -39 -39 -23 -120 -92 -145 -122 -14 -16 -50 -57 -80 -90 -75 -82 -24
-40 80 65 137 139 279 207 525 250 130 23 344 28 328 8 -9 -12 -52 -88 -80
-143 -6 -11 -18 -34 -27 -52 -22 -42 -20 -69 6 -112 43 -71 127 -114 223 -115
110 0 136 25 155 151 20 127 27 163 33 169 3 4 24 -8 45 -25 22 -17 43 -31 46
-31 4 0 19 -12 34 -27 15 -16 23 -25 18 -20 -16 12 -71 8 -92 -7 -31 -23 -25
-100 14 -156 44 -65 66 -82 115 -87 37 -4 49 -1 67 17 19 19 22 29 17 73 -4
27 -14 59 -24 71 -10 11 0 5 21 -14 49 -45 123 -141 159 -205 26 -48 32 -60
63 -133 46 -107 43 -297 -6 -445 -18 -54 -34 -96 -36 -94 -2 2 3 24 13 48 12
33 17 76 17 169 l1 125 -44 88 c-24 48 -47 87 -52 87 -5 0 -9 5 -9 12 0 7 -26
37 -58 68 -53 50 -68 58 -158 85 -93 28 -109 30 -264 30 -152 -1 -173 -3 -260
-29 -220 -65 -371 -164 -514 -336 -20 -25 -34 -36 -30 -25 9 23 57 110 81 143
23 33 3 27 -39 -12 -47 -43 -86 -123 -131 -266 -96 -307 -101 -506 -14 -587
l30 -28 -26 45 c-14 25 -29 68 -33 95 l-7 50 41 -51 c22 -28 58 -62 79 -75
116 -72 335 -115 555 -107 76 2 94 0 86 -9 -6 -7 -24 -13 -41 -13 l-30 0 20
-22 c47 -52 56 -158 23 -267 -11 -36 -24 -73 -30 -81 -15 -24 -12 46 5 113 20
76 19 150 -1 190 -20 39 -33 48 -53 37 -39 -20 -226 -43 -310 -37 -80 6 -230
33 -311 57 -42 12 -149 57 -207 88 -95 50 -148 180 -173 424 -8 79 -41 207
-62 234 -18 25 -40 104 -48 174 l-9 75 4 -85 c2 -67 10 -101 34 -160 39 -94
56 -167 71 -300 27 -247 72 -330 223 -403 50 -25 135 -58 187 -72 52 -15 97
-28 98 -30 2 -2 -3 -16 -12 -32 -43 -77 -84 -265 -85 -389 -1 -127 38 -272 89
-326 17 -18 17 -58 0 -58 -4 0 -21 7 -39 16 -17 9 -76 21 -129 27 -80 9 -102
8 -126 -4 -55 -26 -59 -100 -9 -176 37 -57 98 -86 193 -91 78 -4 96 -12 111
-47 9 -22 34 -62 90 -146 46 -70 131 -146 177 -159 71 -20 188 -32 258 -26
193 15 328 75 395 173 50 72 43 134 -24 210 -21 24 -21 24 18 128 52 135 92
310 74 321 -5 3 -9 -2 -9 -11 0 -18 -19 -65 -83 -205 -40 -89 -53 -122 -67
-172 -12 -47 -12 -48 23 -95 47 -64 54 -93 30 -134 -21 -38 -50 -69 -78 -86
-126 -73 -296 -100 -465 -72 -163 26 -197 90 -209 384 -3 99 -3 181 1 183 23
10 59 47 73 75 26 52 55 182 65 291 12 131 36 270 50 297 7 11 10 23 7 25 -16
16 -90 -149 -108 -241 -6 -27 -16 -102 -23 -165 -21 -183 -71 -260 -143 -220
-47 27 -73 92 -93 230 -16 116 14 315 67 442 l16 37 156 -2 c86 -1 200 1 253
5 l97 6 7 -34 c8 -41 -2 -112 -22 -160 -10 -24 -14 -64 -13 -117 1 -45 0 -86
-2 -92 -9 -22 17 -16 28 6 6 13 25 51 41 84 63 125 81 261 44 327 -13 22 -17
40 -12 43 17 11 27 -3 34 -46 4 -28 12 -43 25 -46 37 -9 75 -275 68 -473 -4
-119 -8 -146 -36 -225 -17 -49 -47 -115 -66 -147 -41 -66 -45 -81 -10 -44 33
35 98 165 120 236 26 87 30 270 10 465 -9 94 -19 173 -22 178 -2 4 9 7 26 7
35 0 65 26 56 48 -4 12 -1 11 15 -3 18 -16 23 -17 30 -5 6 8 10 18 10 23 0 22
21 1 43 -45 38 -81 50 -134 52 -241 1 -59 6 -102 13 -109 14 -14 15 -97 3
-151 -5 -21 -7 -36 -3 -33 3 4 15 -3 27 -14 31 -29 88 -37 120 -16 84 55 89
241 11 469 -14 41 -52 123 -90 192 -22 41 -21 42 22 56 147 47 227 138 285
324 14 44 41 130 61 191 76 236 53 446 -69 639 -30 48 -116 157 -145 185 -100
94 -133 122 -196 168 -40 29 -77 52 -84 52 -14 0 -12 39 11 230 11 98 5 220
-12 220 -18 0 -184 -175 -223 -235 -78 -120 -54 -106 -206 -109 -74 -2 -146
-6 -160 -10 -23 -6 -28 -2 -57 58 -51 102 -137 237 -186 290 -45 47 -45 48
-49 130 -4 98 -29 145 -105 197 -44 31 -55 34 -138 37 -82 3 -94 1 -140 -23z
m1256 -487 c-7 -73 -21 -178 -31 -233 -24 -130 -28 -154 -44 -252 -11 -75 -24
-105 -51 -125 -20 -15 -116 -8 -159 12 -45 20 -106 81 -106 105 0 18 65 139
96 181 13 17 24 34 24 37 0 4 19 37 43 75 23 37 47 75 52 84 6 9 27 40 47 70
21 29 50 71 65 93 46 66 68 93 72 89 2 -2 -2 -63 -8 -136z m177 -515 l27 -28
-33 -3 c-38 -4 -62 12 -62 39 0 28 36 24 68 -8z m-346 -253 c-18 -11 -38 -20
-45 -20 -17 0 44 38 63 39 8 1 0 -8 -18 -19z m172 -7 c36 -26 47 -28 130 -28
l91 0 56 -53 c64 -60 96 -122 130 -252 74 -288 -101 -561 -433 -674 -137 -46
-237 -60 -443 -61 -325 0 -482 51 -564 186 -15 24 -21 51 -21 94 0 89 52 285
87 326 7 8 13 19 13 24 0 15 88 130 143 186 68 70 158 133 267 189 l85 43 48
-33 c90 -60 159 -50 245 37 21 21 40 32 50 29 10 -3 24 -1 32 4 24 15 41 12
84 -17z m-274 -13 l45 -7 -41 -2 c-55 -1 -105 9 -98 21 4 5 16 7 28 3 11 -4
41 -11 66 -15z m-31 -40 l46 -8 -42 -1 c-47 -1 -93 13 -93 29 0 7 7 7 21 -1
12 -6 42 -15 68 -19z m711 -698 c-34 -101 -79 -179 -129 -224 -52 -46 -157
-100 -232 -119 -41 -11 -49 -16 -49 -36 0 -13 7 -38 16 -56 15 -31 14 -31 -20
8 -19 22 -35 48 -36 58 0 13 -9 17 -42 17 -24 1 -54 7 -68 14 -23 13 -22 14
35 21 173 20 282 72 398 188 54 54 124 157 134 196 4 14 8 20 11 13 2 -8 -6
-44 -18 -80z m-285 -456 c25 -48 45 -93 45 -99 0 -7 7 -25 16 -42 20 -39 54
-197 54 -256 0 -71 -27 -146 -56 -153 -28 -7 -57 6 -78 35 -13 19 -11 26 12
77 24 52 26 68 26 172 -1 125 -16 181 -73 265 -41 61 -44 74 -18 84 12 5 23 8
24 7 2 -1 23 -42 48 -90z m-50 -103 c33 -75 51 -187 35 -228 -16 -42 -31 -13
-24 46 6 46 -16 182 -36 219 -6 11 -8 20 -5 20 3 0 17 -26 30 -57z m-888 -800
c-4 -58 -7 -138 -7 -176 l0 -70 -25 49 c-14 27 -25 53 -25 58 0 6 -10 20 -22
33 -19 20 -31 23 -97 23 -129 1 -213 55 -208 135 l2 40 84 -2 c85 -3 173 -24
202 -49 27 -24 39 -16 39 26 0 38 1 40 32 40 l31 0 -6 -107z"/>
<path d="M2885 2727 c-16 -8 -38 -23 -48 -34 -22 -25 -40 -84 -29 -95 10 -10
62 29 62 46 0 7 9 21 21 32 29 26 91 25 122 -4 30 -29 33 -28 46 10 12 34 7
48 -11 30 -9 -9 -16 -8 -28 3 -24 22 -99 28 -135 12z"/>
<path d="M2077 2630 c-44 -11 -85 -36 -109 -64 -16 -20 -17 -20 -37 -2 -12 11
-24 17 -27 13 -8 -8 13 -67 34 -95 l18 -23 32 49 c40 62 87 86 163 85 55 -1
134 -31 151 -57 5 -8 8 -7 8 2 0 16 -45 59 -82 78 -37 19 -104 25 -151 14z"/>
<path d="M2704 2480 c-12 -5 -32 -23 -44 -40 -22 -30 -23 -31 -42 -13 -15 13
-36 18 -82 18 -73 0 -99 -17 -164 -107 -32 -44 -50 -60 -81 -69 l-39 -12 29
-24 c40 -34 120 -63 172 -63 59 0 131 26 168 61 31 29 49 36 49 20 0 -14 58
-31 105 -31 76 0 168 71 189 146 6 18 1 22 -26 28 -18 3 -62 24 -98 45 -74 43
-106 53 -136 41z m73 -43 c12 -6 43 -24 69 -39 25 -16 53 -28 60 -28 25 0 15
-29 -21 -64 -60 -59 -164 -60 -210 -3 -24 31 -26 31 -37 12 -52 -88 -209 -135
-310 -91 -46 20 -57 36 -25 36 14 0 38 15 59 38 20 20 49 51 65 67 39 40 67
55 103 55 34 0 79 -20 100 -44 10 -12 16 -14 26 -5 8 6 14 17 14 23 0 21 40
56 63 56 12 0 32 -6 44 -13z"/>
<path d="M1968 3253 c-41 -7 -98 -75 -98 -118 0 -69 62 -149 125 -161 66 -12
126 4 167 46 33 33 38 44 38 84 0 52 -17 83 -64 119 -33 26 -112 40 -168 30z
m132 -63 c39 -39 -9 -69 -58 -34 -24 17 -29 40 -9 47 25 11 48 6 67 -13z"/>
<path d="M1261 2957 c-13 -21 -12 -21 5 -5 10 10 16 20 13 22 -3 3 -11 -5 -18
-17z"/>
<path d="M1231 2889 c-6 -18 -11 -39 -10 -48 0 -9 7 4 14 29 16 51 13 67 -4
19z"/>
<path d="M1314 2694 c2 -16 8 -30 15 -32 6 -2 11 -15 11 -29 0 -17 4 -23 13
-20 10 4 13 -2 9 -19 -3 -18 0 -24 14 -24 11 0 26 5 34 10 13 8 12 10 -2 10
-13 0 -18 8 -18 26 0 19 -4 25 -15 20 -11 -4 -15 1 -15 19 0 16 -6 25 -16 25
-8 0 -13 4 -10 9 3 5 -1 14 -9 21 -11 9 -13 7 -11 -16z"/>
<path d="M1482 2590 c-34 -31 -48 -38 -36 -19 4 7 1 10 -7 7 -21 -7 -18 -43 4
-42 10 1 17 -5 17 -17 0 -23 18 -24 47 -4 16 11 22 12 25 3 3 -7 19 10 37 36
18 26 31 50 28 52 -9 9 -75 -24 -86 -43 -10 -16 -11 -15 -5 7 4 14 9 31 11 38
8 18 1 15 -35 -18z"/>
<path d="M2200 784 c0 -20 51 -96 91 -135 52 -50 106 -70 168 -61 42 6 50 22
11 22 -38 0 -127 37 -134 55 -3 8 5 16 20 19 13 4 24 10 24 14 0 10 -112 71
-150 82 -17 5 -30 6 -30 4z"/>
</g>
</svg>
